<?xml version="1.0" encoding="iso-8859-1"?>
<!-- Generator: Adobe Illustrator 19.0.0, SVG Export Plug-In . SVG Version: 6.00 Build 0)  -->
<svg version="1.1" id="Capa_1" xmlns="http://www.w3.org/2000/svg" xmlns:xlink="http://www.w3.org/1999/xlink" x="0px" y="0px"
	 viewBox="0 0 512 512" style="enable-background:new 0 0 512 512;" xml:space="preserve">
<path style="fill:#FC5271;" d="M347.915,347.999c9.808-9.808,25.709-9.808,35.517,0L494.7,459.267
	c9.674,9.674,9.597,25.579-0.17,35.347l0,0c-9.768,9.768-25.673,9.844-35.347,0.17L347.915,383.515
	C338.107,373.708,338.107,357.806,347.915,347.999L347.915,347.999z"/>
<circle style="fill:#4AA7ED;" cx="184.015" cy="183.936" r="173.939"/>
<circle style="fill:#A5E4FA;" cx="184.015" cy="183.936" r="125.956"/>
<path d="M220.266,314.467c-4.301,0-8.273-2.797-9.572-7.129c-1.584-5.289,1.418-10.86,6.707-12.446
	c48.642-14.577,82.615-60.261,82.615-111.096c0-63.941-52.02-115.959-115.96-115.959c-63.94,0-115.958,52.02-115.958,115.959
	c0,50.834,33.971,96.518,82.613,111.095c5.288,1.584,8.29,7.157,6.706,12.446c-1.585,5.289-7.156,8.291-12.446,6.706
	c-27.428-8.221-52.09-25.392-69.442-48.353c-17.941-23.742-27.424-52.06-27.424-81.894c0-74.965,60.988-135.952,135.951-135.952
	c74.965,0,135.953,60.989,135.953,135.952c0,29.835-9.483,58.154-27.425,81.895c-17.351,22.96-42.013,40.132-69.445,48.352
	C222.182,314.33,221.215,314.467,220.266,314.467z"/>
<path d="M184.051,319.853c-5.52,0-9.996-4.475-9.996-9.996v-0.116c0-5.521,4.476-9.996,9.996-9.996s9.996,4.475,9.996,9.996v0.116
	C194.048,315.377,189.571,319.853,184.051,319.853z"/>
<path d="M183.904,284.787c-4.618,0-9.238-0.315-13.823-0.954c-21.889-3.046-41.741-12.936-57.409-28.603
	c-39.366-39.366-39.366-103.42-0.001-142.785c3.905-3.904,10.232-3.905,14.138,0c3.904,3.904,3.904,10.233,0,14.137
	c-31.571,31.571-31.57,82.941,0.001,114.511c15.493,15.494,36.412,23.627,57.493,23.628c13.072,0,26.204-3.126,38.152-9.563
	c4.859-2.619,10.922-0.802,13.542,4.059c2.618,4.86,0.802,10.923-4.06,13.542C217.271,280.66,200.609,284.787,183.904,284.787z"/>
<path d="M248.44,258.213c-2.572,0-5.144-0.987-7.099-2.957c-3.888-3.92-3.891-10.278,0.029-14.166
	c3.922-3.888,10.22-3.892,14.108,0.029l0.059,0.059c3.888,3.92,3.861,10.249-0.059,14.137
	C253.53,257.248,250.985,258.213,248.44,258.213z"/>
<path d="M501.77,452.199L390.5,340.93c-6.632-6.632-15.449-10.284-24.827-10.284c-5.945,0-11.663,1.472-16.744,4.238l-28.12-28.121
	c29.293-32.591,47.145-75.66,47.145-122.827C367.954,82.513,285.441,0,184.018,0S0.083,82.513,0.083,183.935
	s82.513,183.935,183.935,183.935c47.078,0,90.074-17.787,122.643-46.981l28.145,28.145c-7.2,13.307-5.192,30.316,6.04,41.549
	l111.27,111.27c6.768,6.768,15.665,10.146,24.585,10.146c9.001,0,18.023-3.442,24.899-10.317
	C515.289,487.994,515.366,465.795,501.77,452.199z M20.076,183.936c0-90.398,73.544-163.942,163.942-163.942
	s163.942,73.544,163.942,163.942s-73.544,163.942-163.942,163.942S20.076,274.335,20.076,183.936z M354.979,355.072
	C354.979,355.071,354.979,355.071,354.979,355.072c0.002-0.002,0.003-0.003,0.004-0.005l0,0c2.855-2.855,6.652-4.428,10.689-4.428
	c4.039,0,7.834,1.572,10.689,4.428l7.165,7.166l-21.379,21.379l-7.165-7.165C349.09,370.555,349.089,360.966,354.979,355.072z
	 M487.463,487.546c-5.894,5.895-15.41,5.972-21.21,0.17l-89.966-89.966l21.379-21.379l89.966,89.966
	C493.433,472.137,493.357,481.652,487.463,487.546z"/>
<g>
</g>
<g>
</g>
<g>
</g>
<g>
</g>
<g>
</g>
<g>
</g>
<g>
</g>
<g>
</g>
<g>
</g>
<g>
</g>
<g>
</g>
<g>
</g>
<g>
</g>
<g>
</g>
<g>
</g>
</svg>
