<?xml version="1.0" encoding="iso-8859-1"?>
<!-- Generator: Adobe Illustrator 19.0.0, SVG Export Plug-In . SVG Version: 6.00 Build 0)  -->
<svg version="1.1" id="Layer_1" xmlns="http://www.w3.org/2000/svg" xmlns:xlink="http://www.w3.org/1999/xlink" x="0px" y="0px"
	 viewBox="0 0 512.007 512.007" style="enable-background:new 0 0 512.007 512.007;" xml:space="preserve">
<g>
	<g>
		<path d="M445.388,29.099C418.733,10.187,386.863,0.019,354.18,0C267.134-0.172,196.43,70.254,196.258,157.3
			c-0.065,32.936,10.19,65.066,29.324,91.874c-0.419,0.222-0.818,0.479-1.195,0.768l-79.275,79.36l-2.475-2.475
			c-3.328-3.309-8.704-3.309-12.032,0l-128,128c-3.309,3.328-3.309,8.704,0,12.032l42.667,42.667c3.328,3.309,8.704,3.309,12.032,0
			l128-128c3.309-3.328,3.309-8.704,0-12.032l-2.56-2.56l79.275-79.275c0.289-0.376,0.546-0.776,0.768-1.195
			c71.07,50.424,169.559,33.687,219.983-37.383S516.458,79.523,445.388,29.099z M51.247,491.435L20.612,460.8L136.58,344.832
			l30.635,30.635L51.247,491.435z M170.713,354.902l-13.568-13.568l79.019-79.019c4.245,4.792,8.776,9.323,13.568,13.568
			L170.713,354.902z M354.18,298.667c-77.762,0-140.8-63.038-140.8-140.8s63.038-140.8,140.8-140.8s140.8,63.038,140.8,140.8
			C494.886,235.59,431.903,298.573,354.18,298.667z"/>
	</g>
</g>
<g>
</g>
<g>
</g>
<g>
</g>
<g>
</g>
<g>
</g>
<g>
</g>
<g>
</g>
<g>
</g>
<g>
</g>
<g>
</g>
<g>
</g>
<g>
</g>
<g>
</g>
<g>
</g>
<g>
</g>
</svg>
