<?xml version="1.0" encoding="iso-8859-1"?>
<!-- Generator: Adobe Illustrator 19.0.0, SVG Export Plug-In . SVG Version: 6.00 Build 0)  -->
<svg version="1.1" id="Capa_1" xmlns="http://www.w3.org/2000/svg" xmlns:xlink="http://www.w3.org/1999/xlink" x="0px" y="0px"
	 viewBox="0 0 512 512" style="enable-background:new 0 0 512 512;" xml:space="preserve">
<g>
	<g>
		<path d="M184.055,47.843c-74.964,0-135.951,60.988-135.951,135.952c0,29.835,9.484,58.153,27.424,81.894
			c17.352,22.961,42.013,40.132,69.442,48.353c5.289,1.585,10.86-1.417,12.446-6.706c1.584-5.288-1.417-10.861-6.706-12.446
			c-48.642-14.577-82.613-60.261-82.613-111.095c0-63.94,52.019-115.959,115.958-115.959c63.941,0,115.96,52.019,115.96,115.959
			c0,50.835-33.973,96.519-82.615,111.096c-5.289,1.585-8.291,7.157-6.707,12.446c1.299,4.332,5.27,7.129,9.572,7.129
			c0.95,0,1.916-0.137,2.873-0.425c27.431-8.22,52.094-25.392,69.445-48.352c17.943-23.742,27.425-52.061,27.425-81.895
			C320.009,108.832,259.02,47.843,184.055,47.843z"/>
	</g>
</g>
<g>
	<g>
		<path d="M184.051,299.744c-5.52,0-9.996,4.475-9.996,9.996v0.116c0,5.521,4.476,9.997,9.996,9.997c5.52,0,9.997-4.475,9.997-9.997
			v-0.116C194.048,304.219,189.571,299.744,184.051,299.744z"/>
	</g>
</g>
<g>
	<g>
		<path d="M235.997,259.217c-2.62-4.86-8.683-6.678-13.542-4.059c-11.948,6.437-25.079,9.563-38.152,9.563
			c-21.081-0.001-42-8.134-57.493-23.628c-31.571-31.57-31.572-82.94-0.001-114.511c3.904-3.904,3.904-10.233,0-14.137
			c-3.906-3.905-10.233-3.904-14.138,0c-39.365,39.365-39.365,103.419,0.001,142.785c15.668,15.667,35.52,25.557,57.409,28.603
			c4.585,0.639,9.205,0.954,13.823,0.954c16.704,0,33.366-4.127,48.033-12.028C236.799,270.14,238.615,264.077,235.997,259.217z"/>
	</g>
</g>
<g>
	<g>
		<path d="M255.537,241.178l-0.059-0.059c-3.888-3.921-10.186-3.917-14.108-0.029c-3.92,3.888-3.917,10.246-0.029,14.166
			c1.954,1.97,4.526,2.957,7.099,2.957c2.545,0,5.09-0.966,7.039-2.898C259.398,251.428,259.425,245.098,255.537,241.178z"/>
	</g>
</g>
<g>
	<g>
		<path d="M501.77,452.199L390.5,340.93c-6.632-6.632-15.449-10.284-24.827-10.284c-5.945,0-11.663,1.472-16.744,4.238
			l-28.12-28.121c29.293-32.591,47.145-75.66,47.145-122.827C367.954,82.513,285.441,0,184.018,0S0.083,82.513,0.083,183.935
			s82.513,183.935,183.935,183.935c47.078,0,90.074-17.787,122.643-46.981l28.145,28.145c-7.2,13.307-5.192,30.316,6.04,41.549
			l111.27,111.27c6.768,6.768,15.665,10.146,24.585,10.146c9.001,0,18.023-3.442,24.899-10.317
			C515.289,487.994,515.366,465.795,501.77,452.199z M184.018,347.879c-90.398,0-163.942-73.544-163.942-163.942
			S93.62,19.994,184.018,19.994s163.942,73.544,163.942,163.942S274.417,347.879,184.018,347.879z M354.982,376.448
			c-5.892-5.893-5.893-15.482-0.003-21.375c0.002-0.002,0.003-0.003,0.004-0.005c2.855-2.855,6.652-4.428,10.689-4.428
			c4.039,0,7.834,1.572,10.689,4.428l7.165,7.167l-21.379,21.379L354.982,376.448z M487.463,487.546
			c-5.894,5.895-15.41,5.972-21.21,0.17l-89.966-89.966l21.379-21.379l89.966,89.966
			C493.433,472.137,493.357,481.652,487.463,487.546z"/>
	</g>
</g>
<g>
</g>
<g>
</g>
<g>
</g>
<g>
</g>
<g>
</g>
<g>
</g>
<g>
</g>
<g>
</g>
<g>
</g>
<g>
</g>
<g>
</g>
<g>
</g>
<g>
</g>
<g>
</g>
<g>
</g>
</svg>
